<mxfile host="app.diagrams.net" modified="2023-12-02T17:27:53.038Z" agent="Mozilla/5.0 (Windows NT 10.0; Win64; x64) AppleWebKit/537.36 (KHTML, like Gecko) Chrome/119.0.0.0 Safari/537.36" etag="Snb2fljQ9xy28An7WmJL" version="21.4.0" type="github">
  <diagram name="Page-1" id="lPlKhoa1pe5EaeNsE4Xp">
    <mxGraphModel dx="885" dy="540" grid="1" gridSize="10" guides="1" tooltips="1" connect="1" arrows="1" fold="1" page="1" pageScale="1" pageWidth="850" pageHeight="1100" math="0" shadow="0">
      <root>
        <mxCell id="0" />
        <mxCell id="1" parent="0" />
      </root>
    </mxGraphModel>
  </diagram>
</mxfile>
